<mxfile host="65bd71144e" pages="2">
    <diagram id="yBAOWEmngxn5hGvGN7dU" name="page1">
        <mxGraphModel dx="2444" dy="1158" grid="1" gridSize="10" guides="1" tooltips="1" connect="1" arrows="1" fold="1" page="1" pageScale="1" pageWidth="827" pageHeight="1169" math="0" shadow="0">
            <root>
                <mxCell id="O9JfL2ePYVTEkad8jwnE-0"/>
                <mxCell id="O9JfL2ePYVTEkad8jwnE-1" parent="O9JfL2ePYVTEkad8jwnE-0"/>
                <mxCell id="O9JfL2ePYVTEkad8jwnE-17" value="" style="rounded=0;whiteSpace=wrap;html=1;fontFamily=DejaVu Sans Mono;strokeColor=#666666;fontColor=#333333;fillColor=#E6E6E6;" parent="O9JfL2ePYVTEkad8jwnE-1" vertex="1">
                    <mxGeometry x="-440" y="350" width="1020" height="160" as="geometry"/>
                </mxCell>
                <mxCell id="O9JfL2ePYVTEkad8jwnE-11" style="edgeStyle=none;rounded=0;orthogonalLoop=1;jettySize=auto;html=1;exitX=1;exitY=0.5;exitDx=0;exitDy=0;entryX=0;entryY=0.5;entryDx=0;entryDy=0;fontFamily=DejaVu Sans Mono;strokeWidth=2;strokeColor=#FF6666;" parent="O9JfL2ePYVTEkad8jwnE-1" source="O9JfL2ePYVTEkad8jwnE-2" target="O9JfL2ePYVTEkad8jwnE-4" edge="1">
                    <mxGeometry relative="1" as="geometry"/>
                </mxCell>
                <mxCell id="O9JfL2ePYVTEkad8jwnE-12" style="edgeStyle=none;rounded=0;orthogonalLoop=1;jettySize=auto;html=1;exitX=1;exitY=0.5;exitDx=0;exitDy=0;entryX=0;entryY=0.5;entryDx=0;entryDy=0;fontFamily=DejaVu Sans Mono;" parent="O9JfL2ePYVTEkad8jwnE-1" source="O9JfL2ePYVTEkad8jwnE-2" target="O9JfL2ePYVTEkad8jwnE-5" edge="1">
                    <mxGeometry relative="1" as="geometry"/>
                </mxCell>
                <mxCell id="O9JfL2ePYVTEkad8jwnE-15" style="edgeStyle=none;rounded=0;orthogonalLoop=1;jettySize=auto;html=1;exitX=1;exitY=0.5;exitDx=0;exitDy=0;entryX=0;entryY=0.5;entryDx=0;entryDy=0;fontFamily=DejaVu Sans Mono;" parent="O9JfL2ePYVTEkad8jwnE-1" source="O9JfL2ePYVTEkad8jwnE-2" target="O9JfL2ePYVTEkad8jwnE-6" edge="1">
                    <mxGeometry relative="1" as="geometry"/>
                </mxCell>
                <mxCell id="O9JfL2ePYVTEkad8jwnE-2" value="API Gateway Instance1" style="rounded=1;whiteSpace=wrap;html=1;fontFamily=DejaVu Sans Mono;fillColor=#d5e8d4;strokeColor=#82b366;" parent="O9JfL2ePYVTEkad8jwnE-1" vertex="1">
                    <mxGeometry x="-90" y="360" width="180" height="40" as="geometry"/>
                </mxCell>
                <mxCell id="O9JfL2ePYVTEkad8jwnE-13" style="edgeStyle=none;rounded=0;orthogonalLoop=1;jettySize=auto;html=1;exitX=1;exitY=0.5;exitDx=0;exitDy=0;entryX=0;entryY=0.5;entryDx=0;entryDy=0;fontFamily=DejaVu Sans Mono;" parent="O9JfL2ePYVTEkad8jwnE-1" source="O9JfL2ePYVTEkad8jwnE-3" target="O9JfL2ePYVTEkad8jwnE-5" edge="1">
                    <mxGeometry relative="1" as="geometry"/>
                </mxCell>
                <mxCell id="O9JfL2ePYVTEkad8jwnE-14" style="edgeStyle=none;rounded=0;orthogonalLoop=1;jettySize=auto;html=1;exitX=1;exitY=0.5;exitDx=0;exitDy=0;entryX=0;entryY=0.5;entryDx=0;entryDy=0;fontFamily=DejaVu Sans Mono;" parent="O9JfL2ePYVTEkad8jwnE-1" source="O9JfL2ePYVTEkad8jwnE-3" target="O9JfL2ePYVTEkad8jwnE-6" edge="1">
                    <mxGeometry relative="1" as="geometry"/>
                </mxCell>
                <mxCell id="O9JfL2ePYVTEkad8jwnE-16" style="edgeStyle=none;rounded=0;orthogonalLoop=1;jettySize=auto;html=1;exitX=1;exitY=0.5;exitDx=0;exitDy=0;entryX=0;entryY=0.5;entryDx=0;entryDy=0;fontFamily=DejaVu Sans Mono;" parent="O9JfL2ePYVTEkad8jwnE-1" source="O9JfL2ePYVTEkad8jwnE-3" target="O9JfL2ePYVTEkad8jwnE-4" edge="1">
                    <mxGeometry relative="1" as="geometry"/>
                </mxCell>
                <mxCell id="O9JfL2ePYVTEkad8jwnE-3" value="&lt;span&gt;API Gateway Instance2&lt;/span&gt;" style="rounded=1;whiteSpace=wrap;html=1;fontFamily=DejaVu Sans Mono;fillColor=#d5e8d4;strokeColor=#82b366;" parent="O9JfL2ePYVTEkad8jwnE-1" vertex="1">
                    <mxGeometry x="-90" y="457.5" width="180" height="40" as="geometry"/>
                </mxCell>
                <mxCell id="O9JfL2ePYVTEkad8jwnE-4" value="后端服务1" style="rounded=1;whiteSpace=wrap;html=1;fontFamily=DejaVu Sans Mono;fillColor=#fff2cc;strokeColor=#d6b656;" parent="O9JfL2ePYVTEkad8jwnE-1" vertex="1">
                    <mxGeometry x="360" y="360" width="120" height="35" as="geometry"/>
                </mxCell>
                <mxCell id="O9JfL2ePYVTEkad8jwnE-5" value="后端服务2" style="rounded=1;whiteSpace=wrap;html=1;fontFamily=DejaVu Sans Mono;fillColor=#fff2cc;strokeColor=#d6b656;" parent="O9JfL2ePYVTEkad8jwnE-1" vertex="1">
                    <mxGeometry x="360" y="410" width="120" height="35" as="geometry"/>
                </mxCell>
                <mxCell id="O9JfL2ePYVTEkad8jwnE-6" value="后端服务3" style="rounded=1;whiteSpace=wrap;html=1;fontFamily=DejaVu Sans Mono;fillColor=#fff2cc;strokeColor=#d6b656;" parent="O9JfL2ePYVTEkad8jwnE-1" vertex="1">
                    <mxGeometry x="360" y="460" width="120" height="35" as="geometry"/>
                </mxCell>
                <mxCell id="O9JfL2ePYVTEkad8jwnE-9" style="rounded=0;orthogonalLoop=1;jettySize=auto;html=1;exitX=1;exitY=0.5;exitDx=0;exitDy=0;entryX=0;entryY=0.5;entryDx=0;entryDy=0;fontFamily=DejaVu Sans Mono;strokeWidth=2;strokeColor=#FF6666;" parent="O9JfL2ePYVTEkad8jwnE-1" source="O9JfL2ePYVTEkad8jwnE-7" target="O9JfL2ePYVTEkad8jwnE-2" edge="1">
                    <mxGeometry relative="1" as="geometry"/>
                </mxCell>
                <mxCell id="O9JfL2ePYVTEkad8jwnE-10" style="edgeStyle=none;rounded=0;orthogonalLoop=1;jettySize=auto;html=1;exitX=1;exitY=0.5;exitDx=0;exitDy=0;entryX=0;entryY=0.5;entryDx=0;entryDy=0;fontFamily=DejaVu Sans Mono;" parent="O9JfL2ePYVTEkad8jwnE-1" source="O9JfL2ePYVTEkad8jwnE-7" target="O9JfL2ePYVTEkad8jwnE-3" edge="1">
                    <mxGeometry relative="1" as="geometry"/>
                </mxCell>
                <mxCell id="O9JfL2ePYVTEkad8jwnE-7" value="负载均衡" style="rounded=1;whiteSpace=wrap;html=1;fontFamily=DejaVu Sans Mono;fillColor=#dae8fc;strokeColor=#6c8ebf;" parent="O9JfL2ePYVTEkad8jwnE-1" vertex="1">
                    <mxGeometry x="-310" y="415" width="120" height="30" as="geometry"/>
                </mxCell>
                <mxCell id="O9JfL2ePYVTEkad8jwnE-8" value="请求" style="endArrow=classic;html=1;fontFamily=DejaVu Sans Mono;entryX=0;entryY=0.5;entryDx=0;entryDy=0;strokeWidth=2;strokeColor=#FF3333;" parent="O9JfL2ePYVTEkad8jwnE-1" target="O9JfL2ePYVTEkad8jwnE-7" edge="1">
                    <mxGeometry width="50" height="50" relative="1" as="geometry">
                        <mxPoint x="-390" y="430" as="sourcePoint"/>
                        <mxPoint x="-90" y="370" as="targetPoint"/>
                    </mxGeometry>
                </mxCell>
            </root>
        </mxGraphModel>
    </diagram>
    <diagram id="b1URTAir2miB7SVz9ulp" name="page2">
        <mxGraphModel dx="2444" dy="1158" grid="1" gridSize="10" guides="1" tooltips="1" connect="1" arrows="1" fold="1" page="1" pageScale="1" pageWidth="827" pageHeight="1169" math="0" shadow="0">
            <root>
                <mxCell id="Ig09IzMqGMGPVsemaqox-0"/>
                <mxCell id="Ig09IzMqGMGPVsemaqox-1" parent="Ig09IzMqGMGPVsemaqox-0"/>
                <mxCell id="EcY-SXifYWAr4YadeAa6-18" value="" style="rounded=0;whiteSpace=wrap;html=1;fontFamily=DejaVu Sans Mono;fillColor=#E6E6E6;" vertex="1" parent="Ig09IzMqGMGPVsemaqox-1">
                    <mxGeometry x="-50" y="240" width="1310" height="270" as="geometry"/>
                </mxCell>
                <mxCell id="EcY-SXifYWAr4YadeAa6-17" value="" style="rounded=0;whiteSpace=wrap;html=1;fontFamily=DejaVu Sans Mono;strokeColor=#36393d;fillColor=#CCCCCC;dashed=1;" vertex="1" parent="Ig09IzMqGMGPVsemaqox-1">
                    <mxGeometry x="460" y="270" width="360" height="210" as="geometry"/>
                </mxCell>
                <mxCell id="EcY-SXifYWAr4YadeAa6-16" value="" style="rounded=0;whiteSpace=wrap;html=1;fontFamily=DejaVu Sans Mono;strokeColor=#666666;fontColor=#333333;fillColor=#CCCCCC;dashed=1;" vertex="1" parent="Ig09IzMqGMGPVsemaqox-1">
                    <mxGeometry x="10" y="330" width="230" height="100" as="geometry"/>
                </mxCell>
                <mxCell id="EcY-SXifYWAr4YadeAa6-2" style="edgeStyle=orthogonalEdgeStyle;rounded=0;orthogonalLoop=1;jettySize=auto;html=1;exitX=1;exitY=0.5;exitDx=0;exitDy=0;fontFamily=DejaVu Sans Mono;" edge="1" parent="Ig09IzMqGMGPVsemaqox-1" source="EcY-SXifYWAr4YadeAa6-0" target="EcY-SXifYWAr4YadeAa6-1">
                    <mxGeometry relative="1" as="geometry"/>
                </mxCell>
                <mxCell id="EcY-SXifYWAr4YadeAa6-0" value="AuditFilter" style="rounded=1;whiteSpace=wrap;html=1;fontFamily=DejaVu Sans Mono;fillColor=#d5e8d4;strokeColor=#82b366;" vertex="1" parent="Ig09IzMqGMGPVsemaqox-1">
                    <mxGeometry x="90" y="350" width="120" height="60" as="geometry"/>
                </mxCell>
                <mxCell id="EcY-SXifYWAr4YadeAa6-5" style="edgeStyle=orthogonalEdgeStyle;rounded=0;orthogonalLoop=1;jettySize=auto;html=1;exitX=0.5;exitY=0;exitDx=0;exitDy=0;exitPerimeter=0;fontFamily=DejaVu Sans Mono;" edge="1" parent="Ig09IzMqGMGPVsemaqox-1" source="EcY-SXifYWAr4YadeAa6-1" target="EcY-SXifYWAr4YadeAa6-4">
                    <mxGeometry relative="1" as="geometry"/>
                </mxCell>
                <mxCell id="EcY-SXifYWAr4YadeAa6-8" style="edgeStyle=orthogonalEdgeStyle;rounded=0;orthogonalLoop=1;jettySize=auto;html=1;exitX=0.5;exitY=0;exitDx=0;exitDy=0;exitPerimeter=0;fontFamily=DejaVu Sans Mono;" edge="1" parent="Ig09IzMqGMGPVsemaqox-1" source="EcY-SXifYWAr4YadeAa6-1" target="EcY-SXifYWAr4YadeAa6-7">
                    <mxGeometry relative="1" as="geometry"/>
                </mxCell>
                <mxCell id="EcY-SXifYWAr4YadeAa6-1" value="kafka" style="shape=cylinder3;whiteSpace=wrap;html=1;boundedLbl=1;backgroundOutline=1;size=15;fontFamily=DejaVu Sans Mono;direction=south;fillColor=#dae8fc;strokeColor=#6c8ebf;" vertex="1" parent="Ig09IzMqGMGPVsemaqox-1">
                    <mxGeometry x="270" y="350" width="170" height="60" as="geometry"/>
                </mxCell>
                <mxCell id="EcY-SXifYWAr4YadeAa6-3" value="ES" style="shape=cylinder3;whiteSpace=wrap;html=1;boundedLbl=1;backgroundOutline=1;size=15;fontFamily=DejaVu Sans Mono;fillColor=#fff2cc;strokeColor=#d6b656;" vertex="1" parent="Ig09IzMqGMGPVsemaqox-1">
                    <mxGeometry x="860" y="300" width="90" height="60" as="geometry"/>
                </mxCell>
                <mxCell id="EcY-SXifYWAr4YadeAa6-6" style="edgeStyle=orthogonalEdgeStyle;rounded=0;orthogonalLoop=1;jettySize=auto;html=1;exitX=1;exitY=0.5;exitDx=0;exitDy=0;fontFamily=DejaVu Sans Mono;" edge="1" parent="Ig09IzMqGMGPVsemaqox-1" source="EcY-SXifYWAr4YadeAa6-4" target="EcY-SXifYWAr4YadeAa6-3">
                    <mxGeometry relative="1" as="geometry"/>
                </mxCell>
                <mxCell id="EcY-SXifYWAr4YadeAa6-21" value="写原始日志" style="edgeLabel;html=1;align=center;verticalAlign=middle;resizable=0;points=[];fontFamily=DejaVu Sans Mono;" vertex="1" connectable="0" parent="EcY-SXifYWAr4YadeAa6-6">
                    <mxGeometry x="-0.0952" y="-3" relative="1" as="geometry">
                        <mxPoint as="offset"/>
                    </mxGeometry>
                </mxCell>
                <mxCell id="EcY-SXifYWAr4YadeAa6-4" value="消费者组1" style="rounded=1;whiteSpace=wrap;html=1;fontFamily=DejaVu Sans Mono;fillColor=#ffe6cc;strokeColor=#d79b00;" vertex="1" parent="Ig09IzMqGMGPVsemaqox-1">
                    <mxGeometry x="530" y="300" width="120" height="60" as="geometry"/>
                </mxCell>
                <mxCell id="EcY-SXifYWAr4YadeAa6-11" style="edgeStyle=orthogonalEdgeStyle;rounded=0;orthogonalLoop=1;jettySize=auto;html=1;exitX=1;exitY=0.5;exitDx=0;exitDy=0;fontFamily=DejaVu Sans Mono;" edge="1" parent="Ig09IzMqGMGPVsemaqox-1" source="EcY-SXifYWAr4YadeAa6-7" target="EcY-SXifYWAr4YadeAa6-9">
                    <mxGeometry relative="1" as="geometry"/>
                </mxCell>
                <mxCell id="EcY-SXifYWAr4YadeAa6-7" value="消费者组2" style="rounded=1;whiteSpace=wrap;html=1;fontFamily=DejaVu Sans Mono;fillColor=#f8cecc;strokeColor=#b85450;" vertex="1" parent="Ig09IzMqGMGPVsemaqox-1">
                    <mxGeometry x="530" y="400" width="120" height="60" as="geometry"/>
                </mxCell>
                <mxCell id="EcY-SXifYWAr4YadeAa6-12" style="edgeStyle=orthogonalEdgeStyle;rounded=0;orthogonalLoop=1;jettySize=auto;html=1;exitX=1;exitY=0.5;exitDx=0;exitDy=0;fontFamily=DejaVu Sans Mono;" edge="1" parent="Ig09IzMqGMGPVsemaqox-1" source="EcY-SXifYWAr4YadeAa6-9" target="EcY-SXifYWAr4YadeAa6-10">
                    <mxGeometry relative="1" as="geometry"/>
                </mxCell>
                <mxCell id="EcY-SXifYWAr4YadeAa6-9" value="kafka stream" style="rounded=1;whiteSpace=wrap;html=1;fontFamily=DejaVu Sans Mono;fillColor=#f8cecc;strokeColor=#b85450;" vertex="1" parent="Ig09IzMqGMGPVsemaqox-1">
                    <mxGeometry x="670" y="400" width="120" height="60" as="geometry"/>
                </mxCell>
                <mxCell id="EcY-SXifYWAr4YadeAa6-10" value="mysql" style="shape=cylinder3;whiteSpace=wrap;html=1;boundedLbl=1;backgroundOutline=1;size=15;fontFamily=DejaVu Sans Mono;fillColor=#fff2cc;strokeColor=#d6b656;" vertex="1" parent="Ig09IzMqGMGPVsemaqox-1">
                    <mxGeometry x="860" y="400" width="90" height="60" as="geometry"/>
                </mxCell>
                <mxCell id="EcY-SXifYWAr4YadeAa6-14" style="edgeStyle=orthogonalEdgeStyle;rounded=0;orthogonalLoop=1;jettySize=auto;html=1;exitX=0;exitY=0.5;exitDx=0;exitDy=0;entryX=1;entryY=0.5;entryDx=0;entryDy=0;entryPerimeter=0;fontFamily=DejaVu Sans Mono;dashed=1;" edge="1" parent="Ig09IzMqGMGPVsemaqox-1" source="EcY-SXifYWAr4YadeAa6-13" target="EcY-SXifYWAr4YadeAa6-3">
                    <mxGeometry relative="1" as="geometry">
                        <Array as="points">
                            <mxPoint x="1020" y="380"/>
                            <mxPoint x="1020" y="330"/>
                        </Array>
                    </mxGeometry>
                </mxCell>
                <mxCell id="EcY-SXifYWAr4YadeAa6-15" style="edgeStyle=orthogonalEdgeStyle;rounded=0;orthogonalLoop=1;jettySize=auto;html=1;exitX=0;exitY=0.5;exitDx=0;exitDy=0;entryX=1;entryY=0.5;entryDx=0;entryDy=0;entryPerimeter=0;fontFamily=DejaVu Sans Mono;dashed=1;" edge="1" parent="Ig09IzMqGMGPVsemaqox-1" source="EcY-SXifYWAr4YadeAa6-13" target="EcY-SXifYWAr4YadeAa6-10">
                    <mxGeometry relative="1" as="geometry">
                        <Array as="points">
                            <mxPoint x="1020" y="380"/>
                            <mxPoint x="1020" y="430"/>
                        </Array>
                    </mxGeometry>
                </mxCell>
                <mxCell id="EcY-SXifYWAr4YadeAa6-13" value="网关后台管理" style="rounded=1;whiteSpace=wrap;html=1;fontFamily=DejaVu Sans Mono;fillColor=#e1d5e7;strokeColor=#9673a6;" vertex="1" parent="Ig09IzMqGMGPVsemaqox-1">
                    <mxGeometry x="1090" y="350" width="120" height="60" as="geometry"/>
                </mxCell>
                <mxCell id="EcY-SXifYWAr4YadeAa6-19" value="网关进程" style="text;html=1;strokeColor=none;fillColor=none;align=center;verticalAlign=middle;whiteSpace=wrap;rounded=0;dashed=1;fontFamily=DejaVu Sans Mono;" vertex="1" parent="Ig09IzMqGMGPVsemaqox-1">
                    <mxGeometry x="10" y="330" width="70" height="40" as="geometry"/>
                </mxCell>
                <mxCell id="EcY-SXifYWAr4YadeAa6-20" value="网关后台管理进程" style="text;html=1;strokeColor=none;fillColor=none;align=center;verticalAlign=middle;whiteSpace=wrap;rounded=0;dashed=1;fontFamily=DejaVu Sans Mono;" vertex="1" parent="Ig09IzMqGMGPVsemaqox-1">
                    <mxGeometry x="460" y="270" width="120" height="30" as="geometry"/>
                </mxCell>
            </root>
        </mxGraphModel>
    </diagram>
    <diagram id="P1YmK0KJuW6uSH7Rr-31" name="page3">
        <mxGraphModel dx="2444" dy="1158" grid="1" gridSize="10" guides="1" tooltips="1" connect="1" arrows="1" fold="1" page="1" pageScale="1" pageWidth="827" pageHeight="1169" math="0" shadow="0">
            <root>
                <mxCell id="0H9ofcpL76KJHZcu3iLQ-0"/>
                <mxCell id="0H9ofcpL76KJHZcu3iLQ-1" parent="0H9ofcpL76KJHZcu3iLQ-0"/>
                <mxCell id="w4ZRMrr1cgrVfHKomk18-19" value="" style="rounded=0;whiteSpace=wrap;html=1;fontFamily=DejaVu Sans Mono;fillColor=#E6E6E6;" vertex="1" parent="0H9ofcpL76KJHZcu3iLQ-1">
                    <mxGeometry x="-380" y="150" width="1200" height="140" as="geometry"/>
                </mxCell>
                <mxCell id="w4ZRMrr1cgrVfHKomk18-1" value="4" style="rounded=0;orthogonalLoop=1;jettySize=auto;html=1;exitX=1;exitY=0.5;exitDx=0;exitDy=0;entryX=0;entryY=0.5;entryDx=0;entryDy=0;fontFamily=DejaVu Sans Mono;" edge="1" parent="0H9ofcpL76KJHZcu3iLQ-1" source="w4ZRMrr1cgrVfHKomk18-3" target="w4ZRMrr1cgrVfHKomk18-11">
                    <mxGeometry relative="1" as="geometry"/>
                </mxCell>
                <mxCell id="w4ZRMrr1cgrVfHKomk18-2" style="edgeStyle=none;rounded=0;orthogonalLoop=1;jettySize=auto;html=1;exitX=1;exitY=0.5;exitDx=0;exitDy=0;entryX=0;entryY=0.5;entryDx=0;entryDy=0;fontFamily=DejaVu Sans Mono;" edge="1" parent="0H9ofcpL76KJHZcu3iLQ-1" source="w4ZRMrr1cgrVfHKomk18-3" target="w4ZRMrr1cgrVfHKomk18-12">
                    <mxGeometry relative="1" as="geometry"/>
                </mxCell>
                <mxCell id="w4ZRMrr1cgrVfHKomk18-3" value="" style="rounded=0;whiteSpace=wrap;html=1;fillColor=#fff2cc;strokeColor=#d6b656;fontFamily=DejaVu Sans Mono;" vertex="1" parent="0H9ofcpL76KJHZcu3iLQ-1">
                    <mxGeometry x="-170" y="180" width="670" height="90" as="geometry"/>
                </mxCell>
                <mxCell id="w4ZRMrr1cgrVfHKomk18-4" value="2" style="edgeStyle=none;rounded=0;orthogonalLoop=1;jettySize=auto;html=1;exitX=1;exitY=0.25;exitDx=0;exitDy=0;fontFamily=DejaVu Sans Mono;" edge="1" parent="0H9ofcpL76KJHZcu3iLQ-1" source="w4ZRMrr1cgrVfHKomk18-6" target="w4ZRMrr1cgrVfHKomk18-9">
                    <mxGeometry relative="1" as="geometry"/>
                </mxCell>
                <mxCell id="w4ZRMrr1cgrVfHKomk18-5" value="8" style="edgeStyle=none;rounded=0;orthogonalLoop=1;jettySize=auto;html=1;exitX=0;exitY=0.75;exitDx=0;exitDy=0;entryX=0.96;entryY=0.7;entryDx=0;entryDy=0;entryPerimeter=0;fontFamily=DejaVu Sans Mono;" edge="1" parent="0H9ofcpL76KJHZcu3iLQ-1" source="w4ZRMrr1cgrVfHKomk18-6" target="w4ZRMrr1cgrVfHKomk18-18">
                    <mxGeometry relative="1" as="geometry"/>
                </mxCell>
                <mxCell id="w4ZRMrr1cgrVfHKomk18-6" value="NettyWriteResponseFilter" style="rounded=0;whiteSpace=wrap;html=1;fillColor=#d5e8d4;strokeColor=#82b366;fontFamily=DejaVu Sans Mono;" vertex="1" parent="0H9ofcpL76KJHZcu3iLQ-1">
                    <mxGeometry x="-160" y="200" width="190" height="50" as="geometry"/>
                </mxCell>
                <mxCell id="w4ZRMrr1cgrVfHKomk18-7" value="3" style="edgeStyle=none;rounded=0;orthogonalLoop=1;jettySize=auto;html=1;exitX=1;exitY=0.25;exitDx=0;exitDy=0;fontFamily=DejaVu Sans Mono;" edge="1" parent="0H9ofcpL76KJHZcu3iLQ-1" source="w4ZRMrr1cgrVfHKomk18-9" target="w4ZRMrr1cgrVfHKomk18-15">
                    <mxGeometry relative="1" as="geometry"/>
                </mxCell>
                <mxCell id="w4ZRMrr1cgrVfHKomk18-8" value="7" style="edgeStyle=none;rounded=0;orthogonalLoop=1;jettySize=auto;html=1;exitX=0;exitY=0.75;exitDx=0;exitDy=0;fontFamily=DejaVu Sans Mono;" edge="1" parent="0H9ofcpL76KJHZcu3iLQ-1" source="w4ZRMrr1cgrVfHKomk18-9" target="w4ZRMrr1cgrVfHKomk18-6">
                    <mxGeometry relative="1" as="geometry"/>
                </mxCell>
                <mxCell id="w4ZRMrr1cgrVfHKomk18-9" value="AuditGlobalFilter" style="rounded=0;whiteSpace=wrap;html=1;fillColor=#cdeb8b;strokeColor=#36393d;fontFamily=DejaVu Sans Mono;" vertex="1" parent="0H9ofcpL76KJHZcu3iLQ-1">
                    <mxGeometry x="77" y="200" width="176" height="50" as="geometry"/>
                </mxCell>
                <mxCell id="w4ZRMrr1cgrVfHKomk18-10" value="5" style="edgeStyle=none;rounded=0;orthogonalLoop=1;jettySize=auto;html=1;exitX=0;exitY=0.25;exitDx=0;exitDy=0;entryX=1;entryY=0.25;entryDx=0;entryDy=0;fontFamily=DejaVu Sans Mono;" edge="1" parent="0H9ofcpL76KJHZcu3iLQ-1" source="w4ZRMrr1cgrVfHKomk18-11" target="w4ZRMrr1cgrVfHKomk18-15">
                    <mxGeometry relative="1" as="geometry"/>
                </mxCell>
                <mxCell id="w4ZRMrr1cgrVfHKomk18-11" value="up stream service A" style="rounded=0;whiteSpace=wrap;html=1;fillColor=#e1d5e7;strokeColor=#9673a6;fontFamily=DejaVu Sans Mono;" vertex="1" parent="0H9ofcpL76KJHZcu3iLQ-1">
                    <mxGeometry x="600" y="180" width="200" height="40" as="geometry"/>
                </mxCell>
                <mxCell id="w4ZRMrr1cgrVfHKomk18-12" value="up stream service B" style="rounded=0;whiteSpace=wrap;html=1;fillColor=#e1d5e7;strokeColor=#9673a6;fontFamily=DejaVu Sans Mono;" vertex="1" parent="0H9ofcpL76KJHZcu3iLQ-1">
                    <mxGeometry x="600" y="230" width="200" height="40" as="geometry"/>
                </mxCell>
                <mxCell id="w4ZRMrr1cgrVfHKomk18-13" style="edgeStyle=none;rounded=0;orthogonalLoop=1;jettySize=auto;html=1;exitX=1;exitY=0.5;exitDx=0;exitDy=0;entryX=1;entryY=0.5;entryDx=0;entryDy=0;fontFamily=DejaVu Sans Mono;" edge="1" parent="0H9ofcpL76KJHZcu3iLQ-1" source="w4ZRMrr1cgrVfHKomk18-15" target="w4ZRMrr1cgrVfHKomk18-3">
                    <mxGeometry relative="1" as="geometry"/>
                </mxCell>
                <mxCell id="w4ZRMrr1cgrVfHKomk18-14" value="6" style="edgeStyle=none;rounded=0;orthogonalLoop=1;jettySize=auto;html=1;exitX=0;exitY=0.75;exitDx=0;exitDy=0;fontFamily=DejaVu Sans Mono;" edge="1" parent="0H9ofcpL76KJHZcu3iLQ-1" source="w4ZRMrr1cgrVfHKomk18-15" target="w4ZRMrr1cgrVfHKomk18-9">
                    <mxGeometry relative="1" as="geometry"/>
                </mxCell>
                <mxCell id="w4ZRMrr1cgrVfHKomk18-15" value="Other GlobalFilters" style="rounded=0;whiteSpace=wrap;html=1;fillColor=#d5e8d4;strokeColor=#82b366;fontFamily=DejaVu Sans Mono;" vertex="1" parent="0H9ofcpL76KJHZcu3iLQ-1">
                    <mxGeometry x="300" y="200" width="176" height="50" as="geometry"/>
                </mxCell>
                <mxCell id="w4ZRMrr1cgrVfHKomk18-16" value="全局过滤器链" style="text;html=1;strokeColor=none;fillColor=none;align=center;verticalAlign=middle;whiteSpace=wrap;rounded=0;fontFamily=DejaVu Sans Mono;" vertex="1" parent="0H9ofcpL76KJHZcu3iLQ-1">
                    <mxGeometry x="150" y="150" width="100" height="30" as="geometry"/>
                </mxCell>
                <mxCell id="w4ZRMrr1cgrVfHKomk18-17" value="1" style="edgeStyle=none;rounded=0;orthogonalLoop=1;jettySize=auto;html=1;exitX=0.88;exitY=0.25;exitDx=0;exitDy=0;exitPerimeter=0;entryX=0;entryY=0.25;entryDx=0;entryDy=0;fontFamily=DejaVu Sans Mono;" edge="1" parent="0H9ofcpL76KJHZcu3iLQ-1" source="w4ZRMrr1cgrVfHKomk18-18" target="w4ZRMrr1cgrVfHKomk18-6">
                    <mxGeometry relative="1" as="geometry"/>
                </mxCell>
                <mxCell id="w4ZRMrr1cgrVfHKomk18-18" value="客户端" style="ellipse;shape=cloud;whiteSpace=wrap;html=1;fillColor=#f5f5f5;strokeColor=#666666;fontColor=#333333;fontFamily=DejaVu Sans Mono;" vertex="1" parent="0H9ofcpL76KJHZcu3iLQ-1">
                    <mxGeometry x="-370" y="190" width="120" height="80" as="geometry"/>
                </mxCell>
            </root>
        </mxGraphModel>
    </diagram>
    <diagram id="eMRTIUzpZ5NcUtzbB3H_" name="page4">
        <mxGraphModel dx="2444" dy="1158" grid="1" gridSize="10" guides="1" tooltips="1" connect="1" arrows="1" fold="1" page="1" pageScale="1" pageWidth="827" pageHeight="1169" math="0" shadow="0">
            <root>
                <mxCell id="AjTqxWhnnC147Y5LVsE9-0"/>
                <mxCell id="AjTqxWhnnC147Y5LVsE9-1" parent="AjTqxWhnnC147Y5LVsE9-0"/>
                <mxCell id="AjTqxWhnnC147Y5LVsE9-2" value="" style="rounded=0;whiteSpace=wrap;html=1;strokeColor=#666666;fontColor=#333333;fontFamily=DejaVu Sans Mono;fillColor=#E6E6E6;" vertex="1" parent="AjTqxWhnnC147Y5LVsE9-1">
                    <mxGeometry x="-200" y="370" width="1150" height="160" as="geometry"/>
                </mxCell>
                <mxCell id="AjTqxWhnnC147Y5LVsE9-3" value="" style="rounded=0;whiteSpace=wrap;html=1;fillColor=#d5e8d4;strokeColor=#82b366;fontFamily=DejaVu Sans Mono;" vertex="1" parent="AjTqxWhnnC147Y5LVsE9-1">
                    <mxGeometry x="-150" y="450" width="820" height="70" as="geometry"/>
                </mxCell>
                <mxCell id="AjTqxWhnnC147Y5LVsE9-4" value="" style="rounded=0;whiteSpace=wrap;html=1;fillColor=#dae8fc;strokeColor=#6c8ebf;fontFamily=DejaVu Sans Mono;" vertex="1" parent="AjTqxWhnnC147Y5LVsE9-1">
                    <mxGeometry x="-150" y="380" width="820" height="70" as="geometry"/>
                </mxCell>
                <mxCell id="AjTqxWhnnC147Y5LVsE9-5" value="" style="edgeStyle=orthogonalEdgeStyle;rounded=0;orthogonalLoop=1;jettySize=auto;html=1;fontFamily=DejaVu Sans Mono;" edge="1" parent="AjTqxWhnnC147Y5LVsE9-1" source="AjTqxWhnnC147Y5LVsE9-6" target="AjTqxWhnnC147Y5LVsE9-8">
                    <mxGeometry relative="1" as="geometry"/>
                </mxCell>
                <mxCell id="AjTqxWhnnC147Y5LVsE9-6" value="新建RequestAuditRecord实例" style="rounded=1;whiteSpace=wrap;html=1;fillColor=#ffe6cc;strokeColor=#d79b00;fontFamily=DejaVu Sans Mono;" vertex="1" parent="AjTqxWhnnC147Y5LVsE9-1">
                    <mxGeometry x="-95" y="390" width="200" height="50" as="geometry"/>
                </mxCell>
                <mxCell id="AjTqxWhnnC147Y5LVsE9-7" value="" style="edgeStyle=orthogonalEdgeStyle;rounded=0;orthogonalLoop=1;jettySize=auto;html=1;fontFamily=DejaVu Sans Mono;" edge="1" parent="AjTqxWhnnC147Y5LVsE9-1" source="AjTqxWhnnC147Y5LVsE9-8" target="AjTqxWhnnC147Y5LVsE9-10">
                    <mxGeometry relative="1" as="geometry"/>
                </mxCell>
                <mxCell id="AjTqxWhnnC147Y5LVsE9-8" value="设置开始时间startTime" style="whiteSpace=wrap;html=1;rounded=1;fillColor=#ffe6cc;strokeColor=#d79b00;fontFamily=DejaVu Sans Mono;" vertex="1" parent="AjTqxWhnnC147Y5LVsE9-1">
                    <mxGeometry x="160" y="390" width="200" height="50" as="geometry"/>
                </mxCell>
                <mxCell id="AjTqxWhnnC147Y5LVsE9-9" style="rounded=0;orthogonalLoop=1;jettySize=auto;html=1;exitX=1;exitY=0.5;exitDx=0;exitDy=0;entryX=0;entryY=0.5;entryDx=0;entryDy=0;fontFamily=DejaVu Sans Mono;" edge="1" parent="AjTqxWhnnC147Y5LVsE9-1" source="AjTqxWhnnC147Y5LVsE9-10" target="AjTqxWhnnC147Y5LVsE9-12">
                    <mxGeometry relative="1" as="geometry"/>
                </mxCell>
                <mxCell id="AjTqxWhnnC147Y5LVsE9-10" value="路由前：其他可能需要从ServerWebExchange提取并设置的信息" style="whiteSpace=wrap;html=1;rounded=1;fillColor=#ffe6cc;strokeColor=#d79b00;dashed=1;fontFamily=DejaVu Sans Mono;" vertex="1" parent="AjTqxWhnnC147Y5LVsE9-1">
                    <mxGeometry x="414" y="390" width="160" height="50" as="geometry"/>
                </mxCell>
                <mxCell id="AjTqxWhnnC147Y5LVsE9-11" style="edgeStyle=none;rounded=0;orthogonalLoop=1;jettySize=auto;html=1;exitX=0;exitY=0.5;exitDx=0;exitDy=0;entryX=1;entryY=0.5;entryDx=0;entryDy=0;fontFamily=DejaVu Sans Mono;" edge="1" parent="AjTqxWhnnC147Y5LVsE9-1" source="AjTqxWhnnC147Y5LVsE9-12" target="AjTqxWhnnC147Y5LVsE9-14">
                    <mxGeometry relative="1" as="geometry"/>
                </mxCell>
                <mxCell id="AjTqxWhnnC147Y5LVsE9-12" value="下一个Filter" style="shape=process;whiteSpace=wrap;html=1;backgroundOutline=1;fillColor=#e1d5e7;strokeColor=#9673a6;fontFamily=DejaVu Sans Mono;" vertex="1" parent="AjTqxWhnnC147Y5LVsE9-1">
                    <mxGeometry x="760" y="420" width="120" height="60" as="geometry"/>
                </mxCell>
                <mxCell id="AjTqxWhnnC147Y5LVsE9-13" value="" style="edgeStyle=none;rounded=0;orthogonalLoop=1;jettySize=auto;html=1;fontFamily=DejaVu Sans Mono;" edge="1" parent="AjTqxWhnnC147Y5LVsE9-1" source="AjTqxWhnnC147Y5LVsE9-14" target="AjTqxWhnnC147Y5LVsE9-16">
                    <mxGeometry relative="1" as="geometry"/>
                </mxCell>
                <mxCell id="AjTqxWhnnC147Y5LVsE9-14" value="从request中提取http请求相关信息" style="rounded=1;whiteSpace=wrap;html=1;fillColor=#ffe6cc;strokeColor=#d79b00;fontFamily=DejaVu Sans Mono;" vertex="1" parent="AjTqxWhnnC147Y5LVsE9-1">
                    <mxGeometry x="530" y="460" width="120" height="50" as="geometry"/>
                </mxCell>
                <mxCell id="AjTqxWhnnC147Y5LVsE9-15" value="" style="edgeStyle=none;rounded=0;orthogonalLoop=1;jettySize=auto;html=1;fontFamily=DejaVu Sans Mono;" edge="1" parent="AjTqxWhnnC147Y5LVsE9-1" source="AjTqxWhnnC147Y5LVsE9-16" target="AjTqxWhnnC147Y5LVsE9-19">
                    <mxGeometry relative="1" as="geometry"/>
                </mxCell>
                <mxCell id="AjTqxWhnnC147Y5LVsE9-16" value="从response中提取http响应相关信息" style="whiteSpace=wrap;html=1;rounded=1;fillColor=#ffe6cc;strokeColor=#d79b00;fontFamily=DejaVu Sans Mono;" vertex="1" parent="AjTqxWhnnC147Y5LVsE9-1">
                    <mxGeometry x="390" y="460" width="120" height="50" as="geometry"/>
                </mxCell>
                <mxCell id="AjTqxWhnnC147Y5LVsE9-17" value="" style="edgeStyle=none;rounded=0;orthogonalLoop=1;jettySize=auto;html=1;fontFamily=DejaVu Sans Mono;" edge="1" parent="AjTqxWhnnC147Y5LVsE9-1" source="AjTqxWhnnC147Y5LVsE9-19" target="AjTqxWhnnC147Y5LVsE9-21">
                    <mxGeometry relative="1" as="geometry"/>
                </mxCell>
                <mxCell id="AjTqxWhnnC147Y5LVsE9-19" value="从Route的Metadata中提取关于API的信息" style="whiteSpace=wrap;html=1;rounded=1;fillColor=#f8cecc;strokeColor=#b85450;fontFamily=DejaVu Sans Mono;" vertex="1" parent="AjTqxWhnnC147Y5LVsE9-1">
                    <mxGeometry x="250" y="460" width="120" height="50" as="geometry"/>
                </mxCell>
                <mxCell id="AjTqxWhnnC147Y5LVsE9-28" style="edgeStyle=orthogonalEdgeStyle;rounded=0;orthogonalLoop=1;jettySize=auto;html=1;exitX=0;exitY=0.5;exitDx=0;exitDy=0;entryX=1;entryY=0.5;entryDx=0;entryDy=0;fontFamily=DejaVu Sans Mono;" edge="1" parent="AjTqxWhnnC147Y5LVsE9-1" source="AjTqxWhnnC147Y5LVsE9-21" target="AjTqxWhnnC147Y5LVsE9-27">
                    <mxGeometry relative="1" as="geometry"/>
                </mxCell>
                <mxCell id="AjTqxWhnnC147Y5LVsE9-21" value="设置结束时间endTime" style="whiteSpace=wrap;html=1;rounded=1;fillColor=#fff2cc;strokeColor=#d6b656;fontFamily=DejaVu Sans Mono;" vertex="1" parent="AjTqxWhnnC147Y5LVsE9-1">
                    <mxGeometry x="110" y="460" width="120" height="50" as="geometry"/>
                </mxCell>
                <mxCell id="AjTqxWhnnC147Y5LVsE9-22" style="edgeStyle=orthogonalEdgeStyle;rounded=0;orthogonalLoop=1;jettySize=auto;html=1;exitX=1;exitY=0.5;exitDx=0;exitDy=0;curved=1;entryX=1;entryY=0.5;entryDx=0;entryDy=0;fontFamily=DejaVu Sans Mono;" edge="1" parent="AjTqxWhnnC147Y5LVsE9-1" source="AjTqxWhnnC147Y5LVsE9-12" target="AjTqxWhnnC147Y5LVsE9-12">
                    <mxGeometry relative="1" as="geometry">
                        <mxPoint x="920" y="420" as="targetPoint"/>
                        <Array as="points">
                            <mxPoint x="880" y="440"/>
                            <mxPoint x="940" y="440"/>
                            <mxPoint x="940" y="470"/>
                            <mxPoint x="880" y="470"/>
                        </Array>
                    </mxGeometry>
                </mxCell>
                <mxCell id="AjTqxWhnnC147Y5LVsE9-23" value="" style="endArrow=classic;html=1;entryX=0;entryY=0.5;entryDx=0;entryDy=0;fontFamily=DejaVu Sans Mono;" edge="1" parent="AjTqxWhnnC147Y5LVsE9-1" target="AjTqxWhnnC147Y5LVsE9-6">
                    <mxGeometry width="50" height="50" relative="1" as="geometry">
                        <mxPoint x="-150" y="415" as="sourcePoint"/>
                        <mxPoint x="-30" y="220" as="targetPoint"/>
                    </mxGeometry>
                </mxCell>
                <mxCell id="AjTqxWhnnC147Y5LVsE9-29" style="edgeStyle=orthogonalEdgeStyle;rounded=0;orthogonalLoop=1;jettySize=auto;html=1;exitX=0;exitY=0.5;exitDx=0;exitDy=0;fontFamily=DejaVu Sans Mono;" edge="1" parent="AjTqxWhnnC147Y5LVsE9-1" source="AjTqxWhnnC147Y5LVsE9-27">
                    <mxGeometry relative="1" as="geometry">
                        <mxPoint x="-170" y="485" as="targetPoint"/>
                    </mxGeometry>
                </mxCell>
                <mxCell id="AjTqxWhnnC147Y5LVsE9-27" value="&lt;meta charset=&quot;utf-8&quot;&gt;&lt;span style=&quot;color: rgb(0, 0, 0); font-family: &amp;quot;dejavu sans mono&amp;quot;; font-size: 12px; font-style: normal; font-weight: 400; letter-spacing: normal; text-align: center; text-indent: 0px; text-transform: none; word-spacing: 0px; display: inline; float: none;&quot;&gt;记录放入KafkaSender的队列&lt;/span&gt;" style="verticalLabelPosition=middle;verticalAlign=middle;html=1;shape=process;whiteSpace=wrap;rounded=1;size=0.14;arcSize=6;fontFamily=DejaVu Sans Mono;fillColor=#ffcc99;labelPosition=center;align=center;strokeColor=#36393d;labelBackgroundColor=none;" vertex="1" parent="AjTqxWhnnC147Y5LVsE9-1">
                    <mxGeometry x="-95" y="460" width="170" height="50" as="geometry"/>
                </mxCell>
            </root>
        </mxGraphModel>
    </diagram>
    <diagram id="8ueQCnOxWkD328t9UA5_" name="page5">
        <mxGraphModel dx="2444" dy="1158" grid="1" gridSize="10" guides="1" tooltips="1" connect="1" arrows="1" fold="1" page="1" pageScale="1" pageWidth="827" pageHeight="1169" math="0" shadow="0">
            <root>
                <mxCell id="S3qUkOeZeqUseG4ARtEB-0"/>
                <mxCell id="S3qUkOeZeqUseG4ARtEB-1" parent="S3qUkOeZeqUseG4ARtEB-0"/>
                <mxCell id="S3qUkOeZeqUseG4ARtEB-24" value="" style="rounded=0;whiteSpace=wrap;html=1;labelBackgroundColor=none;fontFamily=DejaVu Sans Mono;fillColor=#E6E6E6;" parent="S3qUkOeZeqUseG4ARtEB-1" vertex="1">
                    <mxGeometry x="-10" y="300" width="810" height="120" as="geometry"/>
                </mxCell>
                <mxCell id="S3qUkOeZeqUseG4ARtEB-3" value="" style="rounded=0;whiteSpace=wrap;html=1;fillColor=#f5f5f5;strokeColor=#666666;fontColor=#333333;fontFamily=DejaVu Sans Mono;" parent="S3qUkOeZeqUseG4ARtEB-1" vertex="1">
                    <mxGeometry x="250" y="310" width="380" height="100" as="geometry"/>
                </mxCell>
                <mxCell id="S3qUkOeZeqUseG4ARtEB-4" value="take" style="edgeStyle=none;rounded=0;orthogonalLoop=1;jettySize=auto;html=1;exitX=1;exitY=0.5;exitDx=0;exitDy=0;exitPerimeter=0;entryX=0;entryY=0.5;entryDx=0;entryDy=0;fontFamily=DejaVu Sans Mono;" parent="S3qUkOeZeqUseG4ARtEB-1" target="S3qUkOeZeqUseG4ARtEB-9" edge="1">
                    <mxGeometry relative="1" as="geometry">
                        <mxPoint x="320" y="370" as="sourcePoint"/>
                    </mxGeometry>
                </mxCell>
                <mxCell id="S3qUkOeZeqUseG4ARtEB-6" value="Send" style="edgeStyle=none;rounded=0;orthogonalLoop=1;jettySize=auto;html=1;exitX=1;exitY=0.5;exitDx=0;exitDy=0;fontFamily=DejaVu Sans Mono;entryX=0;entryY=0.5;entryDx=0;entryDy=0;entryPerimeter=0;" parent="S3qUkOeZeqUseG4ARtEB-1" source="S3qUkOeZeqUseG4ARtEB-9" target="S3qUkOeZeqUseG4ARtEB-23" edge="1">
                    <mxGeometry relative="1" as="geometry">
                        <mxPoint x="670" y="370" as="targetPoint"/>
                    </mxGeometry>
                </mxCell>
                <mxCell id="S3qUkOeZeqUseG4ARtEB-9" value="KafkaProducer" style="rounded=1;whiteSpace=wrap;html=1;fillColor=#dae8fc;strokeColor=#6c8ebf;fontFamily=DejaVu Sans Mono;" parent="S3qUkOeZeqUseG4ARtEB-1" vertex="1">
                    <mxGeometry x="380" y="345" width="120" height="50" as="geometry"/>
                </mxCell>
                <mxCell id="S3qUkOeZeqUseG4ARtEB-10" value="put" style="edgeStyle=none;rounded=0;orthogonalLoop=1;jettySize=auto;html=1;exitX=1;exitY=0.5;exitDx=0;exitDy=0;fontFamily=DejaVu Sans Mono;" parent="S3qUkOeZeqUseG4ARtEB-1" source="S3qUkOeZeqUseG4ARtEB-11" edge="1">
                    <mxGeometry relative="1" as="geometry">
                        <mxPoint x="200" y="370" as="targetPoint"/>
                    </mxGeometry>
                </mxCell>
                <mxCell id="S3qUkOeZeqUseG4ARtEB-11" value="AuditGlobalFilter" style="rounded=1;whiteSpace=wrap;html=1;fillColor=#dae8fc;strokeColor=#6c8ebf;fontFamily=DejaVu Sans Mono;" parent="S3qUkOeZeqUseG4ARtEB-1" vertex="1">
                    <mxGeometry x="20" y="345" width="130" height="50" as="geometry"/>
                </mxCell>
                <mxCell id="S3qUkOeZeqUseG4ARtEB-17" value="&lt;span style=&quot;color: rgb(51 , 51 , 51) ; font-size: 14.4px ; text-align: left ; background-color: rgb(243 , 244 , 244)&quot;&gt;KafkaSender线程&lt;/span&gt;" style="text;html=1;strokeColor=none;fillColor=none;align=center;verticalAlign=middle;whiteSpace=wrap;rounded=0;fontFamily=DejaVu Sans Mono;" parent="S3qUkOeZeqUseG4ARtEB-1" vertex="1">
                    <mxGeometry x="250" y="310" width="150" height="30" as="geometry"/>
                </mxCell>
                <mxCell id="S3qUkOeZeqUseG4ARtEB-22" value="queue" style="strokeWidth=2;html=1;shape=mxgraph.flowchart.direct_data;whiteSpace=wrap;fillColor=#d5e8d4;strokeColor=#82b366;fontFamily=DejaVu Sans Mono;" parent="S3qUkOeZeqUseG4ARtEB-1" vertex="1">
                    <mxGeometry x="200" y="345" width="120" height="50" as="geometry"/>
                </mxCell>
                <mxCell id="S3qUkOeZeqUseG4ARtEB-23" value="kafka" style="strokeWidth=2;html=1;shape=mxgraph.flowchart.direct_data;whiteSpace=wrap;fillColor=#ffcc99;strokeColor=#36393d;fontFamily=DejaVu Sans Mono;" parent="S3qUkOeZeqUseG4ARtEB-1" vertex="1">
                    <mxGeometry x="650" y="345" width="120" height="50" as="geometry"/>
                </mxCell>
            </root>
        </mxGraphModel>
    </diagram>
    <diagram id="BFR7B-beWdppHXIOfJld" name="page6">
        <mxGraphModel dx="1151" dy="662" grid="1" gridSize="10" guides="1" tooltips="1" connect="1" arrows="1" fold="1" page="1" pageScale="1" pageWidth="827" pageHeight="1169" math="0" shadow="0">
            <root>
                <mxCell id="XGdxK0yAUzl0YU8mjpuV-0"/>
                <mxCell id="XGdxK0yAUzl0YU8mjpuV-1" parent="XGdxK0yAUzl0YU8mjpuV-0"/>
                <mxCell id="XGdxK0yAUzl0YU8mjpuV-90" value="" style="rounded=0;whiteSpace=wrap;html=1;fillColor=#f5f5f5;strokeColor=#666666;fontColor=#333333;" vertex="1" parent="XGdxK0yAUzl0YU8mjpuV-1">
                    <mxGeometry x="170" y="440" width="590" height="140" as="geometry"/>
                </mxCell>
                <mxCell id="XGdxK0yAUzl0YU8mjpuV-89" style="edgeStyle=orthogonalEdgeStyle;rounded=0;orthogonalLoop=1;jettySize=auto;html=1;exitX=0.5;exitY=1;exitDx=0;exitDy=0;entryX=0.5;entryY=0;entryDx=0;entryDy=0;" edge="1" parent="XGdxK0yAUzl0YU8mjpuV-1" source="XGdxK0yAUzl0YU8mjpuV-46" target="XGdxK0yAUzl0YU8mjpuV-86">
                    <mxGeometry relative="1" as="geometry"/>
                </mxCell>
                <mxCell id="XGdxK0yAUzl0YU8mjpuV-46" value="" style="rounded=0;whiteSpace=wrap;html=1;fillColor=#dae8fc;strokeColor=#6c8ebf;" vertex="1" parent="XGdxK0yAUzl0YU8mjpuV-1">
                    <mxGeometry x="190" y="480" width="70" height="20" as="geometry"/>
                </mxCell>
                <mxCell id="XGdxK0yAUzl0YU8mjpuV-47" value="" style="rounded=0;whiteSpace=wrap;html=1;fillColor=#dae8fc;strokeColor=#6c8ebf;" vertex="1" parent="XGdxK0yAUzl0YU8mjpuV-1">
                    <mxGeometry x="260" y="480" width="70" height="20" as="geometry"/>
                </mxCell>
                <mxCell id="XGdxK0yAUzl0YU8mjpuV-48" value="" style="rounded=0;whiteSpace=wrap;html=1;fillColor=#dae8fc;strokeColor=#6c8ebf;" vertex="1" parent="XGdxK0yAUzl0YU8mjpuV-1">
                    <mxGeometry x="330" y="480" width="70" height="20" as="geometry"/>
                </mxCell>
                <mxCell id="XGdxK0yAUzl0YU8mjpuV-49" value="" style="rounded=0;whiteSpace=wrap;html=1;fillColor=#dae8fc;strokeColor=#6c8ebf;" vertex="1" parent="XGdxK0yAUzl0YU8mjpuV-1">
                    <mxGeometry x="400" y="480" width="70" height="20" as="geometry"/>
                </mxCell>
                <mxCell id="XGdxK0yAUzl0YU8mjpuV-50" value="" style="rounded=0;whiteSpace=wrap;html=1;fillColor=#dae8fc;strokeColor=#6c8ebf;" vertex="1" parent="XGdxK0yAUzl0YU8mjpuV-1">
                    <mxGeometry x="470" y="480" width="70" height="20" as="geometry"/>
                </mxCell>
                <mxCell id="XGdxK0yAUzl0YU8mjpuV-51" value="" style="rounded=0;whiteSpace=wrap;html=1;fillColor=#dae8fc;strokeColor=#6c8ebf;" vertex="1" parent="XGdxK0yAUzl0YU8mjpuV-1">
                    <mxGeometry x="540" y="480" width="70" height="20" as="geometry"/>
                </mxCell>
                <mxCell id="XGdxK0yAUzl0YU8mjpuV-2" value="" style="rounded=0;whiteSpace=wrap;html=1;fillColor=#dae8fc;strokeColor=#6c8ebf;" vertex="1" parent="XGdxK0yAUzl0YU8mjpuV-1">
                    <mxGeometry x="190" y="450" width="70" height="20" as="geometry"/>
                </mxCell>
                <mxCell id="XGdxK0yAUzl0YU8mjpuV-3" value="" style="rounded=0;whiteSpace=wrap;html=1;fillColor=#dae8fc;strokeColor=#6c8ebf;" vertex="1" parent="XGdxK0yAUzl0YU8mjpuV-1">
                    <mxGeometry x="260" y="450" width="70" height="20" as="geometry"/>
                </mxCell>
                <mxCell id="XGdxK0yAUzl0YU8mjpuV-4" value="" style="rounded=0;whiteSpace=wrap;html=1;fillColor=#dae8fc;strokeColor=#6c8ebf;" vertex="1" parent="XGdxK0yAUzl0YU8mjpuV-1">
                    <mxGeometry x="330" y="450" width="70" height="20" as="geometry"/>
                </mxCell>
                <mxCell id="XGdxK0yAUzl0YU8mjpuV-5" value="" style="rounded=0;whiteSpace=wrap;html=1;fillColor=#dae8fc;strokeColor=#6c8ebf;" vertex="1" parent="XGdxK0yAUzl0YU8mjpuV-1">
                    <mxGeometry x="400" y="450" width="70" height="20" as="geometry"/>
                </mxCell>
                <mxCell id="XGdxK0yAUzl0YU8mjpuV-6" value="" style="rounded=0;whiteSpace=wrap;html=1;fillColor=#dae8fc;strokeColor=#6c8ebf;" vertex="1" parent="XGdxK0yAUzl0YU8mjpuV-1">
                    <mxGeometry x="470" y="450" width="70" height="20" as="geometry"/>
                </mxCell>
                <mxCell id="XGdxK0yAUzl0YU8mjpuV-7" value="" style="rounded=0;whiteSpace=wrap;html=1;fillColor=#dae8fc;strokeColor=#6c8ebf;" vertex="1" parent="XGdxK0yAUzl0YU8mjpuV-1">
                    <mxGeometry x="540" y="450" width="70" height="20" as="geometry"/>
                </mxCell>
                <mxCell id="XGdxK0yAUzl0YU8mjpuV-69" style="edgeStyle=orthogonalEdgeStyle;rounded=0;orthogonalLoop=1;jettySize=auto;html=1;exitX=0.5;exitY=1;exitDx=0;exitDy=0;entryX=0.5;entryY=0;entryDx=0;entryDy=0;" edge="1" parent="XGdxK0yAUzl0YU8mjpuV-1" source="XGdxK0yAUzl0YU8mjpuV-8" target="XGdxK0yAUzl0YU8mjpuV-52">
                    <mxGeometry relative="1" as="geometry"/>
                </mxCell>
                <mxCell id="XGdxK0yAUzl0YU8mjpuV-8" value="" style="ellipse;whiteSpace=wrap;html=1;aspect=fixed;fillColor=#99FF99;" vertex="1" parent="XGdxK0yAUzl0YU8mjpuV-1">
                    <mxGeometry x="200" y="455" width="10" height="10" as="geometry"/>
                </mxCell>
                <mxCell id="XGdxK0yAUzl0YU8mjpuV-70" style="edgeStyle=orthogonalEdgeStyle;rounded=0;orthogonalLoop=1;jettySize=auto;html=1;exitX=0.5;exitY=1;exitDx=0;exitDy=0;entryX=0.5;entryY=0;entryDx=0;entryDy=0;" edge="1" parent="XGdxK0yAUzl0YU8mjpuV-1" source="XGdxK0yAUzl0YU8mjpuV-9" target="XGdxK0yAUzl0YU8mjpuV-53">
                    <mxGeometry relative="1" as="geometry"/>
                </mxCell>
                <mxCell id="XGdxK0yAUzl0YU8mjpuV-9" value="" style="ellipse;whiteSpace=wrap;html=1;aspect=fixed;fillColor=#99FF99;" vertex="1" parent="XGdxK0yAUzl0YU8mjpuV-1">
                    <mxGeometry x="220" y="455" width="10" height="10" as="geometry"/>
                </mxCell>
                <mxCell id="XGdxK0yAUzl0YU8mjpuV-71" style="rounded=0;orthogonalLoop=1;jettySize=auto;html=1;exitX=0.5;exitY=1;exitDx=0;exitDy=0;entryX=0.5;entryY=0;entryDx=0;entryDy=0;" edge="1" parent="XGdxK0yAUzl0YU8mjpuV-1" source="XGdxK0yAUzl0YU8mjpuV-15" target="XGdxK0yAUzl0YU8mjpuV-58">
                    <mxGeometry relative="1" as="geometry"/>
                </mxCell>
                <mxCell id="XGdxK0yAUzl0YU8mjpuV-15" value="" style="ellipse;whiteSpace=wrap;html=1;aspect=fixed;fillColor=#99FF99;" vertex="1" parent="XGdxK0yAUzl0YU8mjpuV-1">
                    <mxGeometry x="240" y="455" width="10" height="10" as="geometry"/>
                </mxCell>
                <mxCell id="XGdxK0yAUzl0YU8mjpuV-72" style="edgeStyle=none;rounded=0;orthogonalLoop=1;jettySize=auto;html=1;exitX=0;exitY=1;exitDx=0;exitDy=0;entryX=0.5;entryY=0;entryDx=0;entryDy=0;" edge="1" parent="XGdxK0yAUzl0YU8mjpuV-1" source="XGdxK0yAUzl0YU8mjpuV-16" target="XGdxK0yAUzl0YU8mjpuV-54">
                    <mxGeometry relative="1" as="geometry"/>
                </mxCell>
                <mxCell id="XGdxK0yAUzl0YU8mjpuV-16" value="" style="ellipse;whiteSpace=wrap;html=1;aspect=fixed;fillColor=#99FF99;" vertex="1" parent="XGdxK0yAUzl0YU8mjpuV-1">
                    <mxGeometry x="270" y="455" width="10" height="10" as="geometry"/>
                </mxCell>
                <mxCell id="XGdxK0yAUzl0YU8mjpuV-75" style="edgeStyle=none;rounded=0;orthogonalLoop=1;jettySize=auto;html=1;exitX=0.5;exitY=1;exitDx=0;exitDy=0;entryX=0.5;entryY=0;entryDx=0;entryDy=0;" edge="1" parent="XGdxK0yAUzl0YU8mjpuV-1" source="XGdxK0yAUzl0YU8mjpuV-17" target="XGdxK0yAUzl0YU8mjpuV-56">
                    <mxGeometry relative="1" as="geometry"/>
                </mxCell>
                <mxCell id="XGdxK0yAUzl0YU8mjpuV-17" value="" style="ellipse;whiteSpace=wrap;html=1;aspect=fixed;fillColor=#FF99FF;" vertex="1" parent="XGdxK0yAUzl0YU8mjpuV-1">
                    <mxGeometry x="310" y="455" width="10" height="10" as="geometry"/>
                </mxCell>
                <mxCell id="XGdxK0yAUzl0YU8mjpuV-76" style="edgeStyle=none;rounded=0;orthogonalLoop=1;jettySize=auto;html=1;exitX=0.5;exitY=1;exitDx=0;exitDy=0;entryX=0.5;entryY=0;entryDx=0;entryDy=0;" edge="1" parent="XGdxK0yAUzl0YU8mjpuV-1" source="XGdxK0yAUzl0YU8mjpuV-19" target="XGdxK0yAUzl0YU8mjpuV-57">
                    <mxGeometry relative="1" as="geometry"/>
                </mxCell>
                <mxCell id="XGdxK0yAUzl0YU8mjpuV-19" value="" style="ellipse;whiteSpace=wrap;html=1;aspect=fixed;fillColor=#FFB366;" vertex="1" parent="XGdxK0yAUzl0YU8mjpuV-1">
                    <mxGeometry x="330" y="455" width="10" height="10" as="geometry"/>
                </mxCell>
                <mxCell id="XGdxK0yAUzl0YU8mjpuV-73" style="edgeStyle=none;rounded=0;orthogonalLoop=1;jettySize=auto;html=1;exitX=0.5;exitY=1;exitDx=0;exitDy=0;entryX=1;entryY=0;entryDx=0;entryDy=0;" edge="1" parent="XGdxK0yAUzl0YU8mjpuV-1" source="XGdxK0yAUzl0YU8mjpuV-20" target="XGdxK0yAUzl0YU8mjpuV-55">
                    <mxGeometry relative="1" as="geometry"/>
                </mxCell>
                <mxCell id="XGdxK0yAUzl0YU8mjpuV-20" value="" style="ellipse;whiteSpace=wrap;html=1;aspect=fixed;fillColor=#99FF99;" vertex="1" parent="XGdxK0yAUzl0YU8mjpuV-1">
                    <mxGeometry x="340" y="455" width="10" height="10" as="geometry"/>
                </mxCell>
                <mxCell id="XGdxK0yAUzl0YU8mjpuV-77" style="edgeStyle=none;rounded=0;orthogonalLoop=1;jettySize=auto;html=1;exitX=0.5;exitY=1;exitDx=0;exitDy=0;entryX=0.5;entryY=0;entryDx=0;entryDy=0;" edge="1" parent="XGdxK0yAUzl0YU8mjpuV-1" source="XGdxK0yAUzl0YU8mjpuV-21" target="XGdxK0yAUzl0YU8mjpuV-59">
                    <mxGeometry relative="1" as="geometry"/>
                </mxCell>
                <mxCell id="XGdxK0yAUzl0YU8mjpuV-21" value="" style="ellipse;whiteSpace=wrap;html=1;aspect=fixed;fillColor=#FFB366;" vertex="1" parent="XGdxK0yAUzl0YU8mjpuV-1">
                    <mxGeometry x="350" y="455" width="10" height="10" as="geometry"/>
                </mxCell>
                <mxCell id="XGdxK0yAUzl0YU8mjpuV-78" style="edgeStyle=none;rounded=0;orthogonalLoop=1;jettySize=auto;html=1;exitX=0.5;exitY=1;exitDx=0;exitDy=0;entryX=0.5;entryY=0;entryDx=0;entryDy=0;" edge="1" parent="XGdxK0yAUzl0YU8mjpuV-1" source="XGdxK0yAUzl0YU8mjpuV-22" target="XGdxK0yAUzl0YU8mjpuV-60">
                    <mxGeometry relative="1" as="geometry"/>
                </mxCell>
                <mxCell id="XGdxK0yAUzl0YU8mjpuV-22" value="" style="ellipse;whiteSpace=wrap;html=1;aspect=fixed;fillColor=#FFB366;" vertex="1" parent="XGdxK0yAUzl0YU8mjpuV-1">
                    <mxGeometry x="370" y="455" width="10" height="10" as="geometry"/>
                </mxCell>
                <mxCell id="XGdxK0yAUzl0YU8mjpuV-79" style="edgeStyle=none;rounded=0;orthogonalLoop=1;jettySize=auto;html=1;exitX=0.5;exitY=1;exitDx=0;exitDy=0;entryX=0.5;entryY=0;entryDx=0;entryDy=0;" edge="1" parent="XGdxK0yAUzl0YU8mjpuV-1" source="XGdxK0yAUzl0YU8mjpuV-23" target="XGdxK0yAUzl0YU8mjpuV-61">
                    <mxGeometry relative="1" as="geometry"/>
                </mxCell>
                <mxCell id="XGdxK0yAUzl0YU8mjpuV-23" value="" style="ellipse;whiteSpace=wrap;html=1;aspect=fixed;fillColor=#FFB366;" vertex="1" parent="XGdxK0yAUzl0YU8mjpuV-1">
                    <mxGeometry x="390" y="455" width="10" height="10" as="geometry"/>
                </mxCell>
                <mxCell id="XGdxK0yAUzl0YU8mjpuV-24" value="" style="ellipse;whiteSpace=wrap;html=1;aspect=fixed;fillColor=#99FF99;" vertex="1" parent="XGdxK0yAUzl0YU8mjpuV-1">
                    <mxGeometry x="409" y="455" width="10" height="10" as="geometry"/>
                </mxCell>
                <mxCell id="XGdxK0yAUzl0YU8mjpuV-80" style="edgeStyle=none;rounded=0;orthogonalLoop=1;jettySize=auto;html=1;exitX=0.5;exitY=1;exitDx=0;exitDy=0;" edge="1" parent="XGdxK0yAUzl0YU8mjpuV-1" source="XGdxK0yAUzl0YU8mjpuV-26" target="XGdxK0yAUzl0YU8mjpuV-63">
                    <mxGeometry relative="1" as="geometry"/>
                </mxCell>
                <mxCell id="XGdxK0yAUzl0YU8mjpuV-26" value="" style="ellipse;whiteSpace=wrap;html=1;aspect=fixed;fillColor=#FFFF66;" vertex="1" parent="XGdxK0yAUzl0YU8mjpuV-1">
                    <mxGeometry x="430" y="455" width="10" height="10" as="geometry"/>
                </mxCell>
                <mxCell id="XGdxK0yAUzl0YU8mjpuV-82" style="edgeStyle=none;rounded=0;orthogonalLoop=1;jettySize=auto;html=1;exitX=0.5;exitY=1;exitDx=0;exitDy=0;entryX=0.5;entryY=0;entryDx=0;entryDy=0;" edge="1" parent="XGdxK0yAUzl0YU8mjpuV-1" source="XGdxK0yAUzl0YU8mjpuV-27" target="XGdxK0yAUzl0YU8mjpuV-64">
                    <mxGeometry relative="1" as="geometry"/>
                </mxCell>
                <mxCell id="XGdxK0yAUzl0YU8mjpuV-27" value="" style="ellipse;whiteSpace=wrap;html=1;aspect=fixed;fillColor=#FFFF66;" vertex="1" parent="XGdxK0yAUzl0YU8mjpuV-1">
                    <mxGeometry x="450" y="455" width="10" height="10" as="geometry"/>
                </mxCell>
                <mxCell id="XGdxK0yAUzl0YU8mjpuV-83" style="edgeStyle=none;rounded=0;orthogonalLoop=1;jettySize=auto;html=1;exitX=0.5;exitY=1;exitDx=0;exitDy=0;" edge="1" parent="XGdxK0yAUzl0YU8mjpuV-1" source="XGdxK0yAUzl0YU8mjpuV-29" target="XGdxK0yAUzl0YU8mjpuV-65">
                    <mxGeometry relative="1" as="geometry"/>
                </mxCell>
                <mxCell id="XGdxK0yAUzl0YU8mjpuV-29" value="" style="ellipse;whiteSpace=wrap;html=1;aspect=fixed;fillColor=#FF66B3;" vertex="1" parent="XGdxK0yAUzl0YU8mjpuV-1">
                    <mxGeometry x="480" y="455" width="10" height="10" as="geometry"/>
                </mxCell>
                <mxCell id="XGdxK0yAUzl0YU8mjpuV-84" style="edgeStyle=none;rounded=0;orthogonalLoop=1;jettySize=auto;html=1;exitX=0.5;exitY=1;exitDx=0;exitDy=0;entryX=0.5;entryY=0;entryDx=0;entryDy=0;" edge="1" parent="XGdxK0yAUzl0YU8mjpuV-1" source="XGdxK0yAUzl0YU8mjpuV-30" target="XGdxK0yAUzl0YU8mjpuV-66">
                    <mxGeometry relative="1" as="geometry"/>
                </mxCell>
                <mxCell id="XGdxK0yAUzl0YU8mjpuV-30" value="" style="ellipse;whiteSpace=wrap;html=1;aspect=fixed;fillColor=#66FFFF;" vertex="1" parent="XGdxK0yAUzl0YU8mjpuV-1">
                    <mxGeometry x="550" y="455" width="10" height="10" as="geometry"/>
                </mxCell>
                <mxCell id="XGdxK0yAUzl0YU8mjpuV-85" style="edgeStyle=none;rounded=0;orthogonalLoop=1;jettySize=auto;html=1;exitX=0.5;exitY=1;exitDx=0;exitDy=0;entryX=0.5;entryY=0;entryDx=0;entryDy=0;" edge="1" parent="XGdxK0yAUzl0YU8mjpuV-1" source="XGdxK0yAUzl0YU8mjpuV-31" target="XGdxK0yAUzl0YU8mjpuV-67">
                    <mxGeometry relative="1" as="geometry"/>
                </mxCell>
                <mxCell id="XGdxK0yAUzl0YU8mjpuV-31" value="" style="ellipse;whiteSpace=wrap;html=1;aspect=fixed;fillColor=#66FFFF;" vertex="1" parent="XGdxK0yAUzl0YU8mjpuV-1">
                    <mxGeometry x="580" y="455" width="10" height="10" as="geometry"/>
                </mxCell>
                <mxCell id="XGdxK0yAUzl0YU8mjpuV-74" style="edgeStyle=none;rounded=0;orthogonalLoop=1;jettySize=auto;html=1;exitX=0.5;exitY=1;exitDx=0;exitDy=0;entryX=0.5;entryY=0;entryDx=0;entryDy=0;" edge="1" parent="XGdxK0yAUzl0YU8mjpuV-1" source="XGdxK0yAUzl0YU8mjpuV-32" target="XGdxK0yAUzl0YU8mjpuV-68">
                    <mxGeometry relative="1" as="geometry"/>
                </mxCell>
                <mxCell id="XGdxK0yAUzl0YU8mjpuV-32" value="" style="ellipse;whiteSpace=wrap;html=1;aspect=fixed;fillColor=#FF99FF;" vertex="1" parent="XGdxK0yAUzl0YU8mjpuV-1">
                    <mxGeometry x="290" y="455" width="10" height="10" as="geometry"/>
                </mxCell>
                <mxCell id="XGdxK0yAUzl0YU8mjpuV-52" value="" style="ellipse;whiteSpace=wrap;html=1;aspect=fixed;fillColor=#99FF99;" vertex="1" parent="XGdxK0yAUzl0YU8mjpuV-1">
                    <mxGeometry x="200" y="485" width="10" height="10" as="geometry"/>
                </mxCell>
                <mxCell id="XGdxK0yAUzl0YU8mjpuV-53" value="" style="ellipse;whiteSpace=wrap;html=1;aspect=fixed;fillColor=#99FF99;" vertex="1" parent="XGdxK0yAUzl0YU8mjpuV-1">
                    <mxGeometry x="220" y="485" width="10" height="10" as="geometry"/>
                </mxCell>
                <mxCell id="XGdxK0yAUzl0YU8mjpuV-54" value="" style="ellipse;whiteSpace=wrap;html=1;aspect=fixed;fillColor=#99FF99;" vertex="1" parent="XGdxK0yAUzl0YU8mjpuV-1">
                    <mxGeometry x="240" y="485" width="10" height="10" as="geometry"/>
                </mxCell>
                <mxCell id="XGdxK0yAUzl0YU8mjpuV-55" value="" style="ellipse;whiteSpace=wrap;html=1;aspect=fixed;fillColor=#99FF99;" vertex="1" parent="XGdxK0yAUzl0YU8mjpuV-1">
                    <mxGeometry x="250" y="485" width="10" height="10" as="geometry"/>
                </mxCell>
                <mxCell id="XGdxK0yAUzl0YU8mjpuV-56" value="" style="ellipse;whiteSpace=wrap;html=1;aspect=fixed;fillColor=#FF99FF;" vertex="1" parent="XGdxK0yAUzl0YU8mjpuV-1">
                    <mxGeometry x="310" y="485" width="10" height="10" as="geometry"/>
                </mxCell>
                <mxCell id="XGdxK0yAUzl0YU8mjpuV-57" value="" style="ellipse;whiteSpace=wrap;html=1;aspect=fixed;fillColor=#FFB366;" vertex="1" parent="XGdxK0yAUzl0YU8mjpuV-1">
                    <mxGeometry x="330" y="485" width="10" height="10" as="geometry"/>
                </mxCell>
                <mxCell id="XGdxK0yAUzl0YU8mjpuV-58" value="" style="ellipse;whiteSpace=wrap;html=1;aspect=fixed;fillColor=#99FF99;" vertex="1" parent="XGdxK0yAUzl0YU8mjpuV-1">
                    <mxGeometry x="230" y="485" width="10" height="10" as="geometry"/>
                </mxCell>
                <mxCell id="XGdxK0yAUzl0YU8mjpuV-59" value="" style="ellipse;whiteSpace=wrap;html=1;aspect=fixed;fillColor=#FFB366;" vertex="1" parent="XGdxK0yAUzl0YU8mjpuV-1">
                    <mxGeometry x="350" y="485" width="10" height="10" as="geometry"/>
                </mxCell>
                <mxCell id="XGdxK0yAUzl0YU8mjpuV-60" value="" style="ellipse;whiteSpace=wrap;html=1;aspect=fixed;fillColor=#FFB366;" vertex="1" parent="XGdxK0yAUzl0YU8mjpuV-1">
                    <mxGeometry x="370" y="485" width="10" height="10" as="geometry"/>
                </mxCell>
                <mxCell id="XGdxK0yAUzl0YU8mjpuV-61" value="" style="ellipse;whiteSpace=wrap;html=1;aspect=fixed;fillColor=#FFB366;" vertex="1" parent="XGdxK0yAUzl0YU8mjpuV-1">
                    <mxGeometry x="390" y="485" width="10" height="10" as="geometry"/>
                </mxCell>
                <mxCell id="XGdxK0yAUzl0YU8mjpuV-62" value="" style="ellipse;whiteSpace=wrap;html=1;aspect=fixed;fillColor=#99FF99;dashed=1;" vertex="1" parent="XGdxK0yAUzl0YU8mjpuV-1">
                    <mxGeometry x="409" y="485" width="10" height="10" as="geometry"/>
                </mxCell>
                <mxCell id="XGdxK0yAUzl0YU8mjpuV-63" value="" style="ellipse;whiteSpace=wrap;html=1;aspect=fixed;fillColor=#FFFF66;" vertex="1" parent="XGdxK0yAUzl0YU8mjpuV-1">
                    <mxGeometry x="430" y="485" width="10" height="10" as="geometry"/>
                </mxCell>
                <mxCell id="XGdxK0yAUzl0YU8mjpuV-64" value="" style="ellipse;whiteSpace=wrap;html=1;aspect=fixed;fillColor=#FFFF66;" vertex="1" parent="XGdxK0yAUzl0YU8mjpuV-1">
                    <mxGeometry x="450" y="485" width="10" height="10" as="geometry"/>
                </mxCell>
                <mxCell id="XGdxK0yAUzl0YU8mjpuV-65" value="" style="ellipse;whiteSpace=wrap;html=1;aspect=fixed;fillColor=#FF66B3;" vertex="1" parent="XGdxK0yAUzl0YU8mjpuV-1">
                    <mxGeometry x="480" y="485" width="10" height="10" as="geometry"/>
                </mxCell>
                <mxCell id="XGdxK0yAUzl0YU8mjpuV-66" value="" style="ellipse;whiteSpace=wrap;html=1;aspect=fixed;fillColor=#66FFFF;" vertex="1" parent="XGdxK0yAUzl0YU8mjpuV-1">
                    <mxGeometry x="550" y="485" width="10" height="10" as="geometry"/>
                </mxCell>
                <mxCell id="XGdxK0yAUzl0YU8mjpuV-67" value="" style="ellipse;whiteSpace=wrap;html=1;aspect=fixed;fillColor=#66FFFF;" vertex="1" parent="XGdxK0yAUzl0YU8mjpuV-1">
                    <mxGeometry x="580" y="485" width="10" height="10" as="geometry"/>
                </mxCell>
                <mxCell id="XGdxK0yAUzl0YU8mjpuV-68" value="" style="ellipse;whiteSpace=wrap;html=1;aspect=fixed;fillColor=#FF99FF;" vertex="1" parent="XGdxK0yAUzl0YU8mjpuV-1">
                    <mxGeometry x="290" y="485" width="10" height="10" as="geometry"/>
                </mxCell>
                <mxCell id="XGdxK0yAUzl0YU8mjpuV-101" style="edgeStyle=orthogonalEdgeStyle;rounded=0;orthogonalLoop=1;jettySize=auto;html=1;exitX=0.5;exitY=1;exitDx=0;exitDy=0;entryX=0;entryY=0;entryDx=0;entryDy=33.75;entryPerimeter=0;" edge="1" parent="XGdxK0yAUzl0YU8mjpuV-1" source="XGdxK0yAUzl0YU8mjpuV-86" target="XGdxK0yAUzl0YU8mjpuV-87">
                    <mxGeometry relative="1" as="geometry"/>
                </mxCell>
                <mxCell id="XGdxK0yAUzl0YU8mjpuV-86" value="累计状态" style="rounded=0;whiteSpace=wrap;html=1;strokeColor=#82b366;fillColor=#99FF99;" vertex="1" parent="XGdxK0yAUzl0YU8mjpuV-1">
                    <mxGeometry x="190" y="510" width="70" height="20" as="geometry"/>
                </mxCell>
                <mxCell id="XGdxK0yAUzl0YU8mjpuV-87" value="&lt;b&gt;DB&lt;/b&gt;" style="shape=cylinder3;whiteSpace=wrap;html=1;boundedLbl=1;backgroundOutline=1;size=15;fillColor=#fff2cc;strokeColor=#d6b656;" vertex="1" parent="XGdxK0yAUzl0YU8mjpuV-1">
                    <mxGeometry x="680" y="520" width="70" height="55" as="geometry"/>
                </mxCell>
                <mxCell id="XGdxK0yAUzl0YU8mjpuV-102" style="edgeStyle=orthogonalEdgeStyle;rounded=0;orthogonalLoop=1;jettySize=auto;html=1;exitX=0.5;exitY=1;exitDx=0;exitDy=0;entryX=0;entryY=0;entryDx=0;entryDy=33.75;entryPerimeter=0;" edge="1" parent="XGdxK0yAUzl0YU8mjpuV-1" source="XGdxK0yAUzl0YU8mjpuV-93" target="XGdxK0yAUzl0YU8mjpuV-87">
                    <mxGeometry relative="1" as="geometry"/>
                </mxCell>
                <mxCell id="XGdxK0yAUzl0YU8mjpuV-93" value="累计状态" style="rounded=0;whiteSpace=wrap;html=1;strokeColor=#82b366;fillColor=#FF66B3;" vertex="1" parent="XGdxK0yAUzl0YU8mjpuV-1">
                    <mxGeometry x="260" y="510" width="70" height="20" as="geometry"/>
                </mxCell>
                <mxCell id="XGdxK0yAUzl0YU8mjpuV-104" style="edgeStyle=orthogonalEdgeStyle;rounded=0;orthogonalLoop=1;jettySize=auto;html=1;exitX=0.5;exitY=1;exitDx=0;exitDy=0;entryX=0;entryY=0;entryDx=0;entryDy=33.75;entryPerimeter=0;" edge="1" parent="XGdxK0yAUzl0YU8mjpuV-1" source="XGdxK0yAUzl0YU8mjpuV-94" target="XGdxK0yAUzl0YU8mjpuV-87">
                    <mxGeometry relative="1" as="geometry"/>
                </mxCell>
                <mxCell id="XGdxK0yAUzl0YU8mjpuV-94" value="累计状态" style="rounded=0;whiteSpace=wrap;html=1;strokeColor=#82b366;fillColor=#FFB366;" vertex="1" parent="XGdxK0yAUzl0YU8mjpuV-1">
                    <mxGeometry x="330" y="510" width="70" height="20" as="geometry"/>
                </mxCell>
                <mxCell id="XGdxK0yAUzl0YU8mjpuV-105" style="edgeStyle=orthogonalEdgeStyle;rounded=0;orthogonalLoop=1;jettySize=auto;html=1;exitX=0.5;exitY=1;exitDx=0;exitDy=0;entryX=0;entryY=0;entryDx=0;entryDy=33.75;entryPerimeter=0;" edge="1" parent="XGdxK0yAUzl0YU8mjpuV-1" source="XGdxK0yAUzl0YU8mjpuV-96" target="XGdxK0yAUzl0YU8mjpuV-87">
                    <mxGeometry relative="1" as="geometry"/>
                </mxCell>
                <mxCell id="XGdxK0yAUzl0YU8mjpuV-96" value="累计状态" style="rounded=0;whiteSpace=wrap;html=1;strokeColor=#82b366;fillColor=#FFFF66;" vertex="1" parent="XGdxK0yAUzl0YU8mjpuV-1">
                    <mxGeometry x="400" y="510" width="70" height="20" as="geometry"/>
                </mxCell>
                <mxCell id="XGdxK0yAUzl0YU8mjpuV-107" style="edgeStyle=orthogonalEdgeStyle;rounded=0;orthogonalLoop=1;jettySize=auto;html=1;exitX=0.5;exitY=1;exitDx=0;exitDy=0;entryX=0;entryY=0;entryDx=0;entryDy=33.75;entryPerimeter=0;" edge="1" parent="XGdxK0yAUzl0YU8mjpuV-1" source="XGdxK0yAUzl0YU8mjpuV-97" target="XGdxK0yAUzl0YU8mjpuV-87">
                    <mxGeometry relative="1" as="geometry"/>
                </mxCell>
                <mxCell id="XGdxK0yAUzl0YU8mjpuV-97" value="累计状态" style="rounded=0;whiteSpace=wrap;html=1;strokeColor=#82b366;fillColor=#FF66B3;" vertex="1" parent="XGdxK0yAUzl0YU8mjpuV-1">
                    <mxGeometry x="470" y="510" width="70" height="20" as="geometry"/>
                </mxCell>
                <mxCell id="XGdxK0yAUzl0YU8mjpuV-108" style="edgeStyle=orthogonalEdgeStyle;rounded=0;orthogonalLoop=1;jettySize=auto;html=1;exitX=0.5;exitY=1;exitDx=0;exitDy=0;entryX=0;entryY=0;entryDx=0;entryDy=33.75;entryPerimeter=0;" edge="1" parent="XGdxK0yAUzl0YU8mjpuV-1" source="XGdxK0yAUzl0YU8mjpuV-98" target="XGdxK0yAUzl0YU8mjpuV-87">
                    <mxGeometry relative="1" as="geometry"/>
                </mxCell>
                <mxCell id="XGdxK0yAUzl0YU8mjpuV-98" value="累计状态" style="rounded=0;whiteSpace=wrap;html=1;strokeColor=#82b366;fillColor=#66FFFF;" vertex="1" parent="XGdxK0yAUzl0YU8mjpuV-1">
                    <mxGeometry x="540" y="510" width="70" height="20" as="geometry"/>
                </mxCell>
            </root>
        </mxGraphModel>
    </diagram>
</mxfile>